<mxfile host="Electron" modified="2023-10-05T21:13:36.915Z" agent="Mozilla/5.0 (Windows NT 10.0; Win64; x64) AppleWebKit/537.36 (KHTML, like Gecko) draw.io/21.7.5 Chrome/114.0.5735.289 Electron/25.8.1 Safari/537.36" etag="xdQ2-2so1TCDkngtI0qi" version="21.7.5" type="device">
  <diagram id="oY38kdm5o83EHuReV2T8" name="user.created">
    <mxGraphModel dx="538" dy="3333" grid="1" gridSize="10" guides="1" tooltips="1" connect="1" arrows="1" fold="1" page="1" pageScale="1" pageWidth="980" pageHeight="1390" math="0" shadow="0">
      <root>
        <mxCell id="0" />
        <mxCell id="1" parent="0" />
        <mxCell id="sdEwPJp4zkoKklKMmfEP-1" style="edgeStyle=none;curved=1;rounded=0;orthogonalLoop=1;jettySize=auto;html=1;fontSize=12;startSize=8;endSize=8;fontFamily=Inter;fontSource=https%3A%2F%2Ffonts.googleapis.com%2Fcss%3Ffamily%3DInter;" parent="1" source="sdEwPJp4zkoKklKMmfEP-2" edge="1">
          <mxGeometry relative="1" as="geometry">
            <mxPoint x="300" y="-1080" as="targetPoint" />
          </mxGeometry>
        </mxCell>
        <mxCell id="sdEwPJp4zkoKklKMmfEP-2" value="User" style="rounded=0;whiteSpace=wrap;html=1;fontFamily=Inter;fontSource=https%3A%2F%2Ffonts.googleapis.com%2Fcss%3Ffamily%3DInter;" parent="1" vertex="1">
          <mxGeometry x="240" y="-1360" width="120" height="40" as="geometry" />
        </mxCell>
        <mxCell id="sdEwPJp4zkoKklKMmfEP-3" style="edgeStyle=none;curved=1;rounded=0;orthogonalLoop=1;jettySize=auto;html=1;fontSize=12;startSize=8;endSize=8;fontFamily=Inter;fontSource=https%3A%2F%2Ffonts.googleapis.com%2Fcss%3Ffamily%3DInter;" parent="1" source="sdEwPJp4zkoKklKMmfEP-4" edge="1">
          <mxGeometry relative="1" as="geometry">
            <mxPoint x="460" y="-1080" as="targetPoint" />
          </mxGeometry>
        </mxCell>
        <mxCell id="sdEwPJp4zkoKklKMmfEP-4" value="Chat" style="rounded=0;whiteSpace=wrap;html=1;fontFamily=Inter;fontSource=https%3A%2F%2Ffonts.googleapis.com%2Fcss%3Ffamily%3DInter;" parent="1" vertex="1">
          <mxGeometry x="400" y="-1360" width="120" height="40" as="geometry" />
        </mxCell>
        <mxCell id="-xzCKRivMfdFnWui1aVe-4" value="" style="group;fontFamily=Inter;fontSource=https%3A%2F%2Ffonts.googleapis.com%2Fcss%3Ffamily%3DInter;" parent="1" vertex="1" connectable="0">
          <mxGeometry x="233" y="-1470" width="137" height="50" as="geometry" />
        </mxCell>
        <mxCell id="smrDSZM0pcQOYa3LXeEk-5" value="send password and email to /verify-password" style="text;html=1;fillColor=none;align=right;verticalAlign=middle;whiteSpace=wrap;rounded=0;fontSize=12;fontFamily=Inter;spacingLeft=4;spacingRight=4;fontSource=https%3A%2F%2Ffonts.googleapis.com%2Fcss%3Ffamily%3DInter;" parent="-xzCKRivMfdFnWui1aVe-4" vertex="1">
          <mxGeometry width="107" height="50" as="geometry" />
        </mxCell>
        <mxCell id="smrDSZM0pcQOYa3LXeEk-6" value="1" style="rounded=0;whiteSpace=wrap;html=1;fontSize=16;container=0;fontFamily=Inter;verticalAlign=middle;fontSource=https%3A%2F%2Ffonts.googleapis.com%2Fcss%3Ffamily%3DInter;" parent="-xzCKRivMfdFnWui1aVe-4" vertex="1">
          <mxGeometry x="107" width="30" height="50" as="geometry" />
        </mxCell>
        <mxCell id="-xzCKRivMfdFnWui1aVe-6" style="edgeStyle=none;curved=1;rounded=0;orthogonalLoop=1;jettySize=auto;html=1;exitX=0;exitY=1;exitDx=0;exitDy=0;entryX=0;entryY=0;entryDx=0;entryDy=0;fontSize=12;startSize=8;endSize=8;fontFamily=Inter;fontSource=https%3A%2F%2Ffonts.googleapis.com%2Fcss%3Ffamily%3DInter;" parent="1" source="-xzCKRivMfdFnWui1aVe-3" target="LEW-G3g9cezNZrhg7D1--1" edge="1">
          <mxGeometry relative="1" as="geometry" />
        </mxCell>
        <mxCell id="-xzCKRivMfdFnWui1aVe-21" value="" style="group;fillColor=#008a00;fontColor=#ffffff;strokeColor=#005700;fontFamily=Inter;fontSource=https%3A%2F%2Ffonts.googleapis.com%2Fcss%3Ffamily%3DInter;" parent="1" vertex="1" connectable="0">
          <mxGeometry x="70" y="-1490" width="131.5" height="20" as="geometry" />
        </mxCell>
        <mxCell id="-xzCKRivMfdFnWui1aVe-18" value="workspace.created" style="text;html=1;strokeColor=#005700;fillColor=#008a00;align=right;verticalAlign=middle;whiteSpace=wrap;rounded=0;fontSize=12;fontFamily=Inter;spacingLeft=4;spacingRight=4;fontColor=#ffffff;fontSource=https%3A%2F%2Ffonts.googleapis.com%2Fcss%3Ffamily%3DInter;" parent="-xzCKRivMfdFnWui1aVe-21" vertex="1">
          <mxGeometry width="108.5" height="20" as="geometry" />
        </mxCell>
        <mxCell id="-xzCKRivMfdFnWui1aVe-19" value="4" style="rounded=0;whiteSpace=wrap;html=1;fontSize=16;container=0;fontFamily=Inter;verticalAlign=middle;fontSource=https%3A%2F%2Ffonts.googleapis.com%2Fcss%3Ffamily%3DInter;" parent="-xzCKRivMfdFnWui1aVe-21" vertex="1">
          <mxGeometry x="108.5" width="23" height="20" as="geometry" />
        </mxCell>
        <mxCell id="TbU6uKOu8RWSeXy5fFDt-8" value="" style="group;fontFamily=Inter;fontSource=https%3A%2F%2Ffonts.googleapis.com%2Fcss%3Ffamily%3DInter;" vertex="1" connectable="0" parent="1">
          <mxGeometry x="450" y="-1280" width="138" height="20" as="geometry" />
        </mxCell>
        <mxCell id="TbU6uKOu8RWSeXy5fFDt-18" value="" style="group;fontFamily=Inter;fontSource=https%3A%2F%2Ffonts.googleapis.com%2Fcss%3Ffamily%3DInter;" vertex="1" connectable="0" parent="TbU6uKOu8RWSeXy5fFDt-8">
          <mxGeometry width="138" height="20" as="geometry" />
        </mxCell>
        <mxCell id="LEW-G3g9cezNZrhg7D1--1" value="2" style="rounded=0;whiteSpace=wrap;html=1;fontSize=16;fontFamily=Inter;verticalAlign=middle;fontSource=https%3A%2F%2Ffonts.googleapis.com%2Fcss%3Ffamily%3DInter;" parent="TbU6uKOu8RWSeXy5fFDt-18" vertex="1">
          <mxGeometry width="20" height="20" as="geometry" />
        </mxCell>
        <mxCell id="LEW-G3g9cezNZrhg7D1--2" value="save the user" style="text;html=1;fillColor=none;align=left;verticalAlign=middle;whiteSpace=wrap;rounded=0;fontSize=12;fontFamily=Inter;spacingLeft=4;container=0;fontSource=https%3A%2F%2Ffonts.googleapis.com%2Fcss%3Ffamily%3DInter;" parent="TbU6uKOu8RWSeXy5fFDt-18" vertex="1">
          <mxGeometry x="20" width="118" height="20" as="geometry" />
        </mxCell>
        <mxCell id="TbU6uKOu8RWSeXy5fFDt-7" style="edgeStyle=none;curved=1;rounded=0;orthogonalLoop=1;jettySize=auto;html=1;exitX=0;exitY=1;exitDx=0;exitDy=0;fontSize=12;startSize=8;endSize=8;entryX=0;entryY=0;entryDx=0;entryDy=0;fontFamily=Inter;fontSource=https%3A%2F%2Ffonts.googleapis.com%2Fcss%3Ffamily%3DInter;" edge="1" parent="1" source="-xzCKRivMfdFnWui1aVe-9" target="TbU6uKOu8RWSeXy5fFDt-10">
          <mxGeometry relative="1" as="geometry">
            <mxPoint x="530" y="-1230" as="targetPoint" />
          </mxGeometry>
        </mxCell>
        <mxCell id="TbU6uKOu8RWSeXy5fFDt-14" value="Client" style="rounded=0;whiteSpace=wrap;html=1;fontFamily=Inter;fontSource=https%3A%2F%2Ffonts.googleapis.com%2Fcss%3Ffamily%3DInter;" vertex="1" parent="1">
          <mxGeometry x="80" y="-1360" width="120" height="40" as="geometry" />
        </mxCell>
        <mxCell id="TbU6uKOu8RWSeXy5fFDt-17" style="edgeStyle=none;curved=1;rounded=0;orthogonalLoop=1;jettySize=auto;html=1;fontSize=12;startSize=8;endSize=8;fontFamily=Inter;fontSource=https%3A%2F%2Ffonts.googleapis.com%2Fcss%3Ffamily%3DInter;" edge="1" parent="1">
          <mxGeometry relative="1" as="geometry">
            <mxPoint x="140" y="-1080" as="targetPoint" />
            <mxPoint x="140" y="-1320" as="sourcePoint" />
          </mxGeometry>
        </mxCell>
        <mxCell id="-xzCKRivMfdFnWui1aVe-7" value="" style="group;fontFamily=Inter;fontSource=https%3A%2F%2Ffonts.googleapis.com%2Fcss%3Ffamily%3DInter;" parent="1" vertex="1" connectable="0">
          <mxGeometry x="130" y="-1250" width="160" height="20" as="geometry" />
        </mxCell>
        <mxCell id="-xzCKRivMfdFnWui1aVe-8" value="3" style="rounded=0;whiteSpace=wrap;html=1;fontSize=16;fontFamily=Inter;verticalAlign=middle;fontSource=https%3A%2F%2Ffonts.googleapis.com%2Fcss%3Ffamily%3DInter;" parent="-xzCKRivMfdFnWui1aVe-7" vertex="1">
          <mxGeometry width="20" height="20" as="geometry" />
        </mxCell>
        <mxCell id="-xzCKRivMfdFnWui1aVe-9" value="sends a message" style="text;html=1;fillColor=none;align=left;verticalAlign=middle;whiteSpace=wrap;rounded=0;fontSize=12;fontFamily=Inter;spacingLeft=4;fontSource=https%3A%2F%2Ffonts.googleapis.com%2Fcss%3Ffamily%3DInter;" parent="-xzCKRivMfdFnWui1aVe-7" vertex="1">
          <mxGeometry x="20" width="140" height="20" as="geometry" />
        </mxCell>
        <mxCell id="TbU6uKOu8RWSeXy5fFDt-19" value="" style="group;fontFamily=Inter;fontSource=https%3A%2F%2Ffonts.googleapis.com%2Fcss%3Ffamily%3DInter;" vertex="1" connectable="0" parent="1">
          <mxGeometry x="290" y="-1300" width="110" height="20" as="geometry" />
        </mxCell>
        <mxCell id="-xzCKRivMfdFnWui1aVe-1" value="" style="group;fillColor=#cdeb8b;strokeColor=#36393d;container=0;fontFamily=Inter;fontSource=https%3A%2F%2Ffonts.googleapis.com%2Fcss%3Ffamily%3DInter;" parent="TbU6uKOu8RWSeXy5fFDt-19" vertex="1" connectable="0">
          <mxGeometry width="110" height="20" as="geometry" />
        </mxCell>
        <mxCell id="-xzCKRivMfdFnWui1aVe-2" value="1" style="rounded=0;whiteSpace=wrap;html=1;fontSize=16;fontFamily=Inter;verticalAlign=middle;fontSource=https%3A%2F%2Ffonts.googleapis.com%2Fcss%3Ffamily%3DInter;" parent="TbU6uKOu8RWSeXy5fFDt-19" vertex="1">
          <mxGeometry width="20" height="20" as="geometry" />
        </mxCell>
        <mxCell id="-xzCKRivMfdFnWui1aVe-3" value="user.created" style="text;html=1;fillColor=#008a00;align=left;verticalAlign=middle;whiteSpace=wrap;rounded=0;fontSize=12;fontFamily=Inter;spacingLeft=4;fontColor=#ffffff;strokeColor=#005700;fontSource=https%3A%2F%2Ffonts.googleapis.com%2Fcss%3Ffamily%3DInter;" parent="TbU6uKOu8RWSeXy5fFDt-19" vertex="1">
          <mxGeometry x="20" width="90" height="20" as="geometry" />
        </mxCell>
        <mxCell id="TbU6uKOu8RWSeXy5fFDt-20" value="" style="group;fontFamily=Inter;fontSource=https%3A%2F%2Ffonts.googleapis.com%2Fcss%3Ffamily%3DInter;" vertex="1" connectable="0" parent="1">
          <mxGeometry x="450" y="-1230" width="138" height="30" as="geometry" />
        </mxCell>
        <mxCell id="TbU6uKOu8RWSeXy5fFDt-10" value="4" style="rounded=0;whiteSpace=wrap;html=1;fontSize=16;fontFamily=Inter;verticalAlign=middle;fontSource=https%3A%2F%2Ffonts.googleapis.com%2Fcss%3Ffamily%3DInter;" vertex="1" parent="TbU6uKOu8RWSeXy5fFDt-20">
          <mxGeometry width="20" height="30" as="geometry" />
        </mxCell>
        <mxCell id="TbU6uKOu8RWSeXy5fFDt-11" value="saves the message" style="text;html=1;fillColor=none;align=left;verticalAlign=middle;whiteSpace=wrap;rounded=0;fontSize=12;fontFamily=Inter;spacingLeft=4;container=0;fontSource=https%3A%2F%2Ffonts.googleapis.com%2Fcss%3Ffamily%3DInter;" vertex="1" parent="TbU6uKOu8RWSeXy5fFDt-20">
          <mxGeometry x="20" width="118" height="30" as="geometry" />
        </mxCell>
      </root>
    </mxGraphModel>
  </diagram>
</mxfile>
